<svg version="1.1" id="Layer_1" xmlns="http://www.w3.org/2000/svg" xmlns:xlink="http://www.w3.org/1999/xlink" x="0px" y="0px"
	 width="100%" viewBox="0 0 580 228" enable-background="new 0 0 580 228" xml:space="preserve">
<path fill="#5F5F5F" opacity="1.000000" stroke="none" 
	d="
M369.000000,229.000000 
	C246.037888,229.000000 123.575790,229.000000 1.056843,229.000000 
	C1.056843,153.061447 1.056843,77.122833 1.056843,1.000000 
	C97.575279,1.000000 194.150681,1.000000 290.726074,1.000000 
	C387.362823,1.000000 483.999603,1.000000 580.818176,1.000000 
	C580.818176,76.999657 580.818176,152.999786 580.818176,229.000000 
	C510.456207,229.000000 439.978119,229.000000 369.000000,229.000000 
M98.713257,146.492661 
	C98.713257,140.438339 98.713257,134.384033 98.713257,128.128952 
	C105.296997,128.128952 111.024406,128.128952 116.714394,128.128952 
	C116.714394,124.275284 116.714394,120.862076 116.714394,116.970352 
	C111.849388,117.306526 107.395248,117.509308 102.965622,117.955482 
	C99.747673,118.279602 98.252029,117.122894 98.500366,113.827347 
	C99.037102,106.704369 96.595314,99.225220 101.921158,92.192978 
	C96.524376,92.192978 91.980415,92.192978 87.522018,92.192978 
	C87.522018,100.738449 87.522018,109.124947 87.522018,117.951637 
	C81.467476,117.654808 75.723145,117.373184 69.523079,117.069229 
	C69.405617,119.643311 69.395546,121.766953 69.193565,123.872192 
	C68.834175,127.618179 70.287941,128.848160 74.116371,128.465912 
	C78.373466,128.040863 82.705719,128.368576 87.567497,128.368576 
	C83.223373,145.024048 76.674103,160.274200 65.775322,173.411911 
	C68.501945,177.170181 70.917542,180.499756 74.196533,185.019409 
	C78.827171,174.266968 83.041153,164.482010 87.492859,154.145081 
	C87.492859,174.168747 87.492859,193.513596 87.492859,213.224335 
	C89.734665,213.342133 91.879120,213.345245 93.995827,213.589203 
	C98.210564,214.074951 99.533249,212.274963 99.234612,208.144974 
	C98.766312,201.668594 98.603973,195.157440 98.615967,188.661591 
	C98.641144,175.017166 98.863869,161.373108 99.496017,148.228714 
	C103.020462,153.760437 106.544914,159.292160 110.347931,165.261093 
	C113.361420,162.959778 116.141808,160.836472 119.036995,158.625504 
	C115.551285,153.508331 112.398399,148.865204 109.224487,144.236496 
	C108.766670,143.568832 108.207741,142.970490 107.514954,142.117676 
	C104.595627,143.894577 101.798393,145.597168 98.713257,146.492661 
M123.183174,112.525917 
	C123.183174,145.906891 123.183174,179.287857 123.183174,212.642944 
	C126.761513,212.642944 130.181778,212.642944 134.206024,212.642944 
	C134.206024,209.998108 134.401718,207.688522 134.163589,205.424591 
	C133.724655,201.251785 135.431732,199.914764 139.553299,200.053650 
	C147.535965,200.322632 155.534256,200.104355 163.525864,200.137619 
	C171.838974,200.172211 171.447815,199.373505 171.473816,207.912415 
	C171.477646,209.169647 171.872116,210.425674 172.090698,211.710800 
	C175.866989,211.710800 179.288910,211.710800 182.831619,211.710800 
	C182.831619,173.741760 182.831619,136.067810 182.831619,97.633194 
	C174.273651,100.806656 172.498779,94.680237 170.149704,89.328133 
	C170.082794,89.175690 169.992508,89.029610 169.950577,88.870682 
	C169.069016,85.528358 166.720978,84.698608 163.533142,84.765144 
	C157.209137,84.897156 150.864120,85.079681 144.558777,84.711037 
	C139.582672,84.420113 136.191284,85.749748 134.769135,90.828049 
	C133.241196,96.284073 129.989853,99.318230 123.927628,98.164970 
	C123.697220,98.121140 123.392624,98.467278 123.178383,98.597725 
	C123.178383,102.945740 123.178383,107.242493 123.183174,112.525917 
M257.550171,30.980825 
	C230.881943,42.576801 213.212433,61.847916 205.912186,91.076347 
	C209.317413,91.076347 211.981232,90.886147 214.606049,91.124840 
	C217.832855,91.418274 219.162918,90.090324 220.207367,87.030624 
	C230.516098,56.831577 256.421448,38.257633 288.381439,37.910183 
	C320.443481,37.561619 349.202240,58.729877 357.706757,88.937981 
	C366.338867,119.599243 353.189728,151.631165 325.285217,167.918533 
	C318.061310,172.134995 317.069153,174.847336 319.628998,183.880371 
	C320.390594,183.656021 321.172546,183.491089 321.904694,183.200638 
	C359.283813,168.370529 380.294525,127.233070 370.459595,88.153343 
	C358.368835,40.110058 306.361572,13.486996 257.550171,30.980825 
M217.992096,133.490387 
	C217.992096,138.064682 217.992096,142.638977 217.992096,147.473206 
	C213.031998,147.751495 208.925629,147.981873 204.573929,148.226013 
	C205.597198,152.150345 206.549820,155.803757 207.462067,159.302338 
	C223.141296,156.838608 238.683716,154.396378 254.441742,151.920273 
	C254.839691,153.846497 255.127167,155.237976 255.427765,156.692932 
	C258.970398,156.692932 262.224579,156.692932 265.382996,156.692932 
	C265.897339,154.532684 265.977570,151.288986 266.834747,151.068741 
	C272.288025,149.667404 270.635895,145.506638 271.404785,142.064743 
	C269.165863,141.914185 267.418457,141.796677 265.233673,141.649750 
	C265.233673,133.021164 265.232849,124.718124 265.233887,116.415085 
	C265.234955,107.888397 265.235809,107.892838 273.695099,107.785576 
	C273.968811,107.782112 274.238800,107.484703 274.685730,107.220901 
	C274.685730,104.064972 274.685730,100.825371 274.685730,97.505615 
	C251.381500,97.505615 228.396759,97.505615 205.356018,97.505615 
	C205.356018,101.072403 205.356018,104.316078 205.356018,107.781174 
	C209.603546,107.512993 213.493530,107.267387 217.992096,106.983353 
	C217.992096,115.929268 217.992096,124.211288 217.992096,133.490387 
M289.751099,154.674454 
	C271.377411,157.060196 253.003754,159.445953 234.737839,161.817703 
	C237.878586,170.130890 237.877472,170.119202 247.189407,169.230759 
	C249.341827,169.025421 251.549133,169.152969 253.653091,168.734589 
	C257.406708,167.988144 258.810944,169.318695 258.721832,173.122925 
	C258.483948,183.275391 258.454163,193.432861 258.359741,203.588501 
	C258.329254,206.865860 258.354950,210.143768 258.354950,213.719772 
	C262.102295,213.719772 265.626740,213.719772 269.008820,213.719772 
	C269.008820,208.517715 269.008850,203.728851 269.008850,198.939987 
	C269.008850,194.080917 269.008820,189.221848 269.008820,183.585236 
	C286.779846,200.302719 304.806244,209.766403 316.415283,208.925949 
	C318.070496,205.063095 319.694824,201.272308 321.379059,197.341675 
	C309.248138,195.397079 296.990814,194.391632 285.187592,186.467957 
	C295.334137,182.401947 304.158936,178.865616 313.413696,175.156982 
	C310.567474,171.726959 307.871857,168.478394 305.387238,165.484100 
	C297.725342,169.937515 290.500519,174.344849 283.050110,178.330566 
	C281.024811,179.414047 277.275024,180.413162 276.122284,179.398911 
	C272.685211,176.374725 267.535095,173.658325 269.634979,166.835815 
	C278.990875,165.975128 288.314362,165.117432 298.517242,164.178833 
	C295.611725,160.657196 293.042542,157.543243 289.751099,154.674454 
M316.124298,113.589348 
	C317.127594,110.641739 318.130890,107.694130 319.205658,104.536606 
	C304.917542,104.536606 291.216370,104.536606 277.278290,104.536606 
	C277.278290,107.587257 277.278290,110.486572 277.278290,113.959778 
	C286.568604,113.959778 295.549652,113.959778 305.129059,113.959778 
	C304.179169,116.163895 303.622772,117.703186 302.877411,119.144775 
	C297.619598,129.313538 297.607178,129.307114 287.715393,123.603477 
	C281.272430,119.888443 280.478394,120.111687 276.171417,126.974815 
	C280.562347,129.795151 284.967621,132.624695 290.483856,136.167831 
	C284.025726,140.721146 278.454651,144.649063 272.866852,148.588730 
	C275.297577,150.804108 277.596649,152.899536 280.271576,155.337509 
	C284.578735,152.078918 289.229370,149.307388 292.905609,145.575912 
	C296.832886,141.589584 299.574432,142.263977 303.102112,145.786407 
	C307.160156,149.838440 311.595337,153.512802 316.131348,157.588989 
	C318.892456,153.878098 321.309357,150.629776 323.988434,147.029083 
	C317.219055,142.310669 311.119934,138.059464 305.381134,134.059372 
	C309.012543,127.216431 312.436035,120.765320 316.124298,113.589348 
M287.828400,44.335903 
	C280.301178,45.871445 272.773956,47.406986 265.246735,48.942532 
	C265.226715,49.514717 265.206696,50.086903 265.186676,50.659084 
	C281.819397,61.903923 298.452148,73.148758 315.428528,84.625916 
	C315.771912,83.171799 316.049225,82.670265 315.970398,82.232948 
	C313.998871,71.297401 312.076752,60.350914 309.860413,49.464474 
	C309.624207,48.304142 307.738220,46.866867 306.431458,46.642681 
	C300.568756,45.636848 294.638702,45.023289 287.828400,44.335903 
M274.523193,77.013214 
	C280.284668,75.869385 286.046173,74.725548 293.163116,73.312614 
	C282.434814,65.885391 272.979858,59.157150 263.262878,52.831402 
	C261.971497,51.990704 259.034058,52.629993 257.395813,53.545052 
	C248.455978,58.538509 241.793381,65.934013 236.555618,74.622879 
	C234.739883,77.634956 233.332733,80.893326 231.168320,85.165512 
	C246.299393,82.295540 259.986328,79.699478 274.523193,77.013214 
M331.127258,100.641479 
	C335.569427,94.203720 340.156189,87.857758 344.344727,81.259010 
	C345.306030,79.744560 345.754089,76.911972 344.986176,75.447372 
	C338.102722,62.318890 326.630127,54.425816 312.717896,47.982002 
	C316.641632,68.711922 320.414398,88.644104 324.440033,109.912323 
	C327.083588,106.251526 328.897980,103.738983 331.127258,100.641479 
M331.312469,105.786133 
	C325.590210,114.257530 319.867950,122.728928 313.952057,131.486984 
	C315.191498,131.774780 315.682892,132.043381 316.111664,131.965851 
	C327.041687,129.989258 337.986389,128.079330 348.861908,125.835037 
	C350.167938,125.565536 351.918640,123.531876 352.057526,122.172302 
	C352.860779,114.308197 353.940613,106.364944 353.535645,98.520302 
	C353.235413,92.704681 350.820129,86.998245 349.347015,81.243172 
	C348.858307,81.281120 348.369598,81.319069 347.880890,81.357018 
	C342.501892,89.307655 337.122894,97.258293 331.312469,105.786133 
M383.158234,185.499939 
	C383.158691,193.332184 383.038788,201.167328 383.226562,208.995087 
	C383.290070,211.642929 381.791901,216.010834 386.551575,215.789017 
	C390.821594,215.590042 389.255585,211.438797 389.262939,208.961594 
	C389.369354,173.133621 389.336029,137.305222 389.331360,101.476921 
	C389.331177,100.144310 389.652985,98.648506 389.157806,97.521881 
	C388.584808,96.218163 387.272766,95.239273 386.281616,94.119347 
	C385.274109,95.251320 383.891937,96.234169 383.365295,97.557503 
	C382.845795,98.862831 383.163422,100.512756 383.163086,102.011520 
	C383.157074,129.507660 383.158447,157.003784 383.158234,185.499939 
M214.514328,201.947403 
	C213.141998,202.728561 211.769653,203.509705 210.140320,204.437149 
	C211.400009,205.482178 212.304779,206.206451 213.180893,206.963867 
	C219.076065,212.060150 219.353119,212.458511 225.879929,207.860764 
	C235.292679,201.230042 244.252045,193.955688 253.737198,186.701843 
	C250.547882,184.086472 247.295654,181.419525 245.137756,179.649979 
	C234.656189,187.333633 224.904572,194.482193 214.514328,201.947403 
M209.031235,193.456131 
	C210.865479,193.259369 213.201172,193.717499 214.452469,192.759384 
	C222.494507,186.601654 230.299026,180.133698 238.383423,173.604599 
	C235.604294,171.235840 232.632416,168.702789 230.331161,166.741333 
	C221.075439,174.228989 212.159134,181.442047 203.199921,188.689850 
	C204.702728,189.895157 206.616135,191.429779 209.031235,193.456131 
M481.496704,181.597458 
	C479.237976,182.009369 476.979248,182.421280 474.251221,182.918777 
	C479.725159,186.523956 485.046051,184.876419 485.679199,179.478745 
	C486.262909,174.502563 485.803406,169.403992 485.803406,164.191116 
	C482.364563,164.386475 478.873108,163.611801 476.792847,164.981094 
	C474.777618,166.307526 473.338959,169.792191 473.200226,172.411224 
	C472.938721,177.347336 475.989105,179.123062 482.757751,178.746735 
	C482.475525,179.586365 482.234192,180.304306 481.496704,181.597458 
M442.547180,207.790512 
	C446.157196,208.643906 449.767212,209.497314 453.902832,210.474976 
	C453.836151,202.694641 454.563934,195.846054 453.543427,189.100876 
	C452.921967,189.069717 452.300476,189.038574 451.678986,189.007416 
	C451.294739,191.133865 450.910492,193.260300 450.526703,195.384293 
	C442.378265,194.507248 439.311584,198.807602 442.547180,207.790512 
M524.918396,165.617172 
	C521.412598,165.120819 517.906799,164.624481 514.368042,164.123459 
	C514.368042,171.115616 514.368042,177.498856 514.368042,183.882095 
	C514.886841,184.021042 515.405640,184.159973 515.924438,184.298904 
	C516.483032,182.461395 517.041626,180.623871 517.612732,178.745041 
	C525.973267,179.389160 529.107178,174.485901 524.918396,165.617172 
M501.526520,166.644119 
	C503.291565,167.098083 505.056610,167.552063 505.981445,167.789932 
	C503.287964,170.766861 499.193115,173.351166 499.459808,175.354935 
	C500.325623,181.859360 506.166412,177.029007 509.885834,179.158249 
	C509.885834,175.297089 510.328094,171.941681 509.710144,168.794434 
	C509.371460,167.069382 507.498199,165.001938 505.838043,164.391846 
	C504.599304,163.936615 502.593323,165.569214 501.526520,166.644119 
M402.005554,176.012878 
	C402.489868,177.008331 402.974152,178.003784 403.458435,178.999237 
	C403.831848,178.871780 404.205261,178.744324 404.578644,178.616867 
	C404.864716,176.404144 405.150787,174.191422 405.441284,171.944427 
	C406.964081,171.566269 408.275208,171.346985 409.511200,170.913513 
	C413.026031,169.680817 414.345673,166.963181 413.884705,163.484283 
	C413.268433,158.833359 409.891907,158.064041 405.873322,157.952194 
	C401.279144,157.824341 402.009888,160.929367 401.996094,163.677734 
	C401.977020,167.485977 401.993408,171.294403 402.005554,176.012878 
M418.388702,158.135376 
	C417.970062,158.561432 417.191376,158.983795 417.186951,159.414078 
	C417.124207,165.542435 417.142242,171.672241 417.238678,177.800140 
	C417.244873,178.192825 418.052917,178.572861 419.474792,179.834335 
	C419.698792,176.548096 419.493591,174.143814 420.121765,171.981644 
	C420.667267,170.103973 422.155853,168.500320 423.227661,166.775574 
	C424.147919,168.446869 425.447296,170.023712 425.893066,171.813217 
	C426.458282,174.082199 426.330139,176.523941 426.501038,178.891174 
	C427.370270,178.831116 428.239471,178.771072 429.108704,178.711029 
	C428.722839,174.550247 428.949249,170.182236 427.646057,166.331940 
	C427.133453,164.817429 423.202728,164.459808 420.282776,163.372040 
	C420.079346,162.393326 419.652100,160.337692 418.388702,158.135376 
M542.006775,172.566147 
	C541.837402,164.790115 540.613831,163.633896 533.485657,164.521179 
	C533.055908,162.318817 532.629639,160.134338 531.996765,156.891235 
	C529.158813,162.188843 529.452515,176.233292 532.515991,179.559250 
	C532.712646,176.523285 532.491211,174.099045 533.125854,171.924728 
	C533.670227,170.059799 535.194092,168.480774 536.284790,166.775314 
	C537.186035,168.465027 538.453186,170.064850 538.895874,171.867203 
	C539.449280,174.120667 539.324768,176.540649 539.492920,178.888733 
	C540.152771,178.880737 540.812622,178.872726 541.472473,178.864716 
	C541.650635,177.060944 541.828735,175.257156 542.006775,172.566147 
M553.717773,165.271805 
	C552.889038,167.614059 552.060364,169.956329 551.009888,172.925323 
	C547.118591,165.371613 546.657227,164.767166 544.722839,164.615372 
	C545.001587,171.189835 553.100647,177.399628 544.999084,184.468933 
	C546.727783,184.343018 548.048096,184.267624 548.317505,183.696472 
	C551.177551,177.633545 553.870667,171.491852 556.609619,165.371826 
	C555.770813,165.124725 554.932068,164.877625 553.717773,165.271805 
M410.790009,191.707367 
	C410.802856,190.967056 410.815735,190.226730 410.828583,189.486420 
	C408.274139,190.102478 404.999023,189.999084 403.415894,191.584839 
	C402.341461,192.661026 403.216553,196.269928 404.042084,198.432236 
	C404.522217,199.689789 406.837067,200.130524 407.933228,201.305542 
	C408.831604,202.268494 409.820648,203.962936 409.532654,204.984344 
	C409.251373,205.981857 407.488739,206.812515 406.218201,207.207550 
	C405.022308,207.579361 403.619995,207.287262 401.411835,207.287262 
	C405.778656,210.723083 409.908539,210.407913 411.996002,207.275208 
	C414.093567,204.127335 412.873810,200.956299 408.987244,198.108063 
	C407.450531,196.981918 406.495361,195.062302 405.275421,193.503967 
	C406.853485,192.918839 408.431549,192.333725 410.790009,191.707367 
M444.787689,166.940094 
	C442.205994,163.595200 438.935516,162.912415 435.697083,165.507004 
	C432.445709,168.111984 431.817688,172.107300 434.116608,175.342880 
	C435.427368,177.187729 438.845215,178.855713 440.981384,178.515182 
	C445.243988,177.835663 446.302704,174.039032 445.879425,170.012482 
	C445.794830,169.207794 445.392883,168.436462 444.787689,166.940094 
M472.755341,209.500351 
	C477.117920,206.233398 478.358521,201.757324 475.766632,197.965546 
	C473.683289,194.917755 470.788849,194.187073 467.496185,195.917801 
	C464.136963,197.683533 462.539124,203.077179 465.094147,206.340195 
	C466.526001,208.168777 469.655731,208.667816 472.755341,209.500351 
M458.317322,169.140137 
	C457.562653,173.053925 457.964874,176.926407 462.150116,178.226425 
	C464.165405,178.852417 467.467560,177.924606 469.145721,176.485886 
	C472.250183,173.824341 471.464783,167.784531 468.345398,165.353592 
	C465.069458,162.800659 461.447906,163.930115 458.317322,169.140137 
M419.270813,132.506973 
	C418.184509,133.484329 416.713593,134.262405 416.084351,135.476654 
	C414.233093,139.048965 414.380859,142.687714 417.556366,145.461380 
	C420.135681,147.714340 423.191132,147.651672 425.659149,145.200043 
	C428.618164,142.260727 429.100769,138.396713 426.689362,135.230713 
	C425.393433,133.529297 422.296356,133.199753 419.270813,132.506973 
M428.992249,197.884827 
	C428.494568,196.994919 427.996918,196.105011 427.499268,195.215103 
	C427.022888,195.773621 426.107391,196.359772 426.140533,196.886200 
	C426.377441,200.648315 426.177185,204.648636 427.515259,208.017441 
	C427.989166,209.210541 432.362732,208.849426 434.954346,209.209579 
	C435.838715,209.332489 436.718109,209.491394 437.232971,209.574585 
	C437.232971,204.552536 437.232971,199.847137 437.232971,195.141754 
	C436.692261,195.126343 436.151550,195.110931 435.610840,195.095520 
	C435.403534,197.041229 435.189056,198.986221 434.990753,200.932861 
	C434.737549,203.418365 435.838257,207.146927 431.882294,207.056488 
	C427.915771,206.965790 429.343994,203.183990 429.022705,200.760178 
	C428.935913,200.105392 429.006348,199.429779 428.992249,197.884827 
M452.990326,137.517914 
	C452.648712,140.096375 454.100433,144.135529 449.798981,144.040955 
	C445.905060,143.955338 447.358490,140.103027 447.013763,137.678436 
	C446.748535,135.813080 446.511566,133.943726 446.261993,132.076141 
	C445.488892,132.139572 444.715759,132.202988 443.942657,132.266418 
	C444.224030,136.329178 443.264740,141.184937 445.189941,144.197037 
	C446.658783,146.495117 451.783112,146.456772 455.133606,147.415543 
	C455.133606,141.711624 455.133606,136.940231 455.133606,132.168854 
	C454.593414,132.156357 454.053192,132.143860 453.513000,132.131378 
	C453.339325,133.633911 453.165649,135.136459 452.990326,137.517914 
M401.997009,142.193665 
	C402.199707,143.772369 402.402435,145.351089 402.605164,146.929794 
	C403.195679,146.921829 403.786224,146.913864 404.376740,146.905884 
	C404.757660,144.021103 405.138580,141.136307 405.506866,138.347214 
	C407.838959,138.023956 409.787811,137.753830 411.736633,137.483704 
	C411.717285,137.087524 411.697937,136.691345 411.678558,136.295151 
	C409.546997,135.809799 407.415405,135.324448 405.239929,134.829102 
	C405.239929,132.764450 405.239929,130.973206 405.239929,129.087204 
	C407.551605,128.597168 409.666870,128.148758 411.782135,127.700363 
	C411.725220,127.307625 411.668304,126.914894 411.611389,126.522156 
	C408.546417,126.522156 405.481445,126.522156 401.995880,126.522156 
	C401.995880,131.645966 401.995880,136.452744 401.997009,142.193665 
M464.332001,134.337173 
	C465.151184,134.208099 465.970367,134.079025 466.789581,133.949951 
	C466.738373,133.395096 466.687164,132.840240 466.635956,132.285370 
	C464.668793,132.562653 461.989105,132.118301 460.854401,133.238678 
	C455.095642,138.924759 464.587280,139.549286 464.784271,143.980759 
	C462.859528,144.290604 461.091736,144.575180 459.323975,144.859756 
	C462.051361,147.537323 464.884705,147.772583 467.073395,144.843506 
	C469.180573,142.023483 467.433197,139.981232 464.854462,138.414505 
	C463.348511,137.499527 460.305176,136.865860 464.332001,134.337173 
M434.299866,137.948181 
	C436.445709,136.337601 438.591522,134.727020 440.959198,132.949936 
	C437.325928,130.852173 434.466187,132.258423 432.269348,135.298599 
	C429.954346,138.502335 430.797363,143.474792 433.712280,145.683914 
	C436.178192,147.552750 438.412415,147.361359 440.621552,145.092026 
	C434.865112,143.548630 434.865112,143.548630 434.299866,137.948181 
M417.045776,193.503448 
	C416.481171,194.434982 415.361542,195.423538 415.450348,196.287949 
	C415.790375,199.598495 416.482910,202.876053 417.112183,206.152786 
	C417.725433,209.346313 419.454132,210.617645 422.830750,209.383408 
	C418.936523,204.763687 418.582153,198.618027 423.320160,195.699677 
	C421.199677,194.684875 419.263275,193.758179 417.045776,193.503448 
M449.994781,171.555481 
	C450.162964,178.515274 451.205414,179.657547 455.691559,177.797745 
	C451.831879,173.669647 451.896881,168.704391 455.621765,164.904938 
	C454.184387,163.558365 452.829041,162.288651 451.542969,161.083832 
	C446.476013,163.754776 450.587830,167.556915 449.994781,171.555481 
M490.592651,178.574722 
	C494.460815,179.079025 492.828217,176.025162 492.909668,174.557755 
	C493.095306,171.213974 492.673828,167.812073 496.749298,166.303726 
	C496.947723,166.230286 496.774811,165.153580 496.774811,164.613464 
	C494.505188,164.613464 492.490479,164.613464 490.175537,164.613464 
	C490.175537,168.924561 490.175537,173.360413 490.592651,178.574722 
M458.051239,197.060516 
	C458.216064,201.335052 457.398071,205.740845 458.608429,209.875748 
	C459.326019,209.843597 460.043610,209.811432 460.761200,209.779282 
	C460.761200,205.217697 460.761200,200.656128 460.761200,196.094559 
	C459.902435,196.125046 459.043671,196.155533 458.051239,197.060516 
z"/>
<path fill="#020202" opacity="1.000000" stroke="none" 
	d="
M123.180779,112.032585 
	C123.178383,107.242493 123.178383,102.945740 123.178383,98.597725 
	C123.392624,98.467278 123.697220,98.121140 123.927628,98.164970 
	C129.989853,99.318230 133.241196,96.284073 134.769135,90.828049 
	C136.191284,85.749748 139.582672,84.420113 144.558777,84.711037 
	C150.864120,85.079681 157.209137,84.897156 163.533142,84.765144 
	C166.720978,84.698608 169.069016,85.528358 169.950577,88.870682 
	C169.992508,89.029610 170.082794,89.175690 170.149704,89.328133 
	C172.498779,94.680237 174.273651,100.806656 182.831619,97.633194 
	C182.831619,136.067810 182.831619,173.741760 182.831619,211.710800 
	C179.288910,211.710800 175.866989,211.710800 172.090698,211.710800 
	C171.872116,210.425674 171.477646,209.169647 171.473816,207.912415 
	C171.447815,199.373505 171.838974,200.172211 163.525864,200.137619 
	C155.534256,200.104355 147.535965,200.322632 139.553299,200.053650 
	C135.431732,199.914764 133.724655,201.251785 134.163589,205.424591 
	C134.401718,207.688522 134.206024,209.998108 134.206024,212.642944 
	C130.181778,212.642944 126.761513,212.642944 123.183174,212.642944 
	C123.183174,179.287857 123.183174,145.906891 123.180779,112.032585 
M144.453018,184.986404 
	C141.927475,186.486694 139.401932,187.986984 136.876373,189.487274 
	C147.811768,190.484497 158.519638,190.529251 169.224930,190.384628 
	C169.944946,190.374908 171.237503,188.951920 171.260895,188.156738 
	C171.434891,182.242340 171.355331,176.320511 171.355331,169.290161 
	C161.911499,174.805756 153.499527,179.718704 144.453018,184.986404 
M148.509369,159.006363 
	C155.072845,159.006363 161.636307,159.006363 168.199783,159.006363 
	C168.303513,158.615112 168.407242,158.223862 168.510971,157.832626 
	C157.384186,151.703018 146.257401,145.573425 134.641754,139.174515 
	C134.641754,146.477356 134.641754,152.535858 134.641754,159.006348 
	C139.233978,159.006348 143.374741,159.006348 148.509369,159.006363 
M171.424652,115.745415 
	C171.314697,113.988853 171.204758,112.232285 171.029816,109.437172 
	C159.238785,115.877419 148.257355,121.875465 137.275925,127.873512 
	C137.431976,128.247192 137.588028,128.620865 137.744080,128.994537 
	C144.885040,128.994537 152.025986,128.994553 159.166946,128.994553 
	C171.428589,128.994537 171.428589,128.994522 171.424652,115.745415 
M160.602600,92.956856 
	C162.120972,93.399033 163.650818,94.162300 165.151474,94.108696 
	C165.674667,94.090004 166.791641,91.746101 166.452118,91.013237 
	C165.955917,89.942223 163.909714,88.471527 163.377121,88.757835 
	C162.099014,89.444939 161.317673,91.056152 160.602600,92.956856 
z"/>
<path fill="#020202" opacity="1.000000" stroke="none" 
	d="
M257.916687,30.854923 
	C306.361572,13.486996 358.368835,40.110058 370.459595,88.153343 
	C380.294525,127.233070 359.283813,168.370529 321.904694,183.200638 
	C321.172546,183.491089 320.390594,183.656021 319.628998,183.880371 
	C317.069153,174.847336 318.061310,172.134995 325.285217,167.918533 
	C353.189728,151.631165 366.338867,119.599243 357.706757,88.937981 
	C349.202240,58.729877 320.443481,37.561619 288.381439,37.910183 
	C256.421448,38.257633 230.516098,56.831577 220.207367,87.030624 
	C219.162918,90.090324 217.832855,91.418274 214.606049,91.124840 
	C211.981232,90.886147 209.317413,91.076347 205.912186,91.076347 
	C213.212433,61.847916 230.881943,42.576801 257.916687,30.854923 
z"/>
<path fill="#010101" opacity="1.000000" stroke="none" 
	d="
M217.992096,132.991852 
	C217.992096,124.211288 217.992096,115.929268 217.992096,106.983353 
	C213.493530,107.267387 209.603546,107.512993 205.356018,107.781174 
	C205.356018,104.316078 205.356018,101.072403 205.356018,97.505615 
	C228.396759,97.505615 251.381500,97.505615 274.685730,97.505615 
	C274.685730,100.825371 274.685730,104.064972 274.685730,107.220901 
	C274.238800,107.484703 273.968811,107.782112 273.695099,107.785576 
	C265.235809,107.892838 265.234955,107.888397 265.233887,116.415085 
	C265.232849,124.718124 265.233673,133.021164 265.233673,141.649750 
	C267.418457,141.796677 269.165863,141.914185 271.404785,142.064743 
	C270.635895,145.506638 272.288025,149.667404 266.834747,151.068741 
	C265.977570,151.288986 265.897339,154.532684 265.382996,156.692932 
	C262.224579,156.692932 258.970398,156.692932 255.427765,156.692932 
	C255.127167,155.237976 254.839691,153.846497 254.441742,151.920273 
	C238.683716,154.396378 223.141296,156.838608 207.462067,159.302338 
	C206.549820,155.803757 205.597198,152.150345 204.573929,148.226013 
	C208.925629,147.981873 213.031998,147.751495 217.992096,147.473206 
	C217.992096,142.638977 217.992096,138.064682 217.992096,132.991852 
M245.455856,130.192169 
	C247.945999,130.174225 250.532257,130.548660 252.885620,129.972275 
	C254.056427,129.685501 255.500900,127.680107 255.546021,126.406944 
	C255.594070,125.051682 254.177582,122.470772 253.326492,122.439484 
	C245.086624,122.136543 236.831146,122.257614 228.337082,122.257614 
	C228.337082,125.108650 228.337082,127.322975 228.337082,130.192184 
	C233.932846,130.192184 239.200775,130.192184 245.455856,130.192169 
M252.075134,114.945007 
	C255.499954,115.309189 256.125519,113.110664 255.622665,110.564323 
	C255.370041,109.285179 254.107040,107.224785 253.248962,107.198235 
	C244.986557,106.942566 236.713043,107.045059 228.393951,107.045059 
	C228.393951,109.984612 228.393951,112.208534 228.393951,114.952843 
	C236.232056,114.952843 243.696167,114.952843 252.075134,114.945007 
M255.039917,143.625015 
	C256.846710,139.266205 255.349594,137.481750 250.696320,137.643616 
	C245.547256,137.822708 240.386963,137.671463 235.231583,137.678970 
	C227.210236,137.690643 226.885574,138.123901 228.851990,147.036972 
	C237.283997,146.048264 245.803787,145.049271 255.039917,143.625015 
z"/>
<path fill="#020202" opacity="1.000000" stroke="none" 
	d="
M99.005493,147.728897 
	C98.863869,161.373108 98.641144,175.017166 98.615967,188.661591 
	C98.603973,195.157440 98.766312,201.668594 99.234612,208.144974 
	C99.533249,212.274963 98.210564,214.074951 93.995827,213.589203 
	C91.879120,213.345245 89.734665,213.342133 87.492859,213.224335 
	C87.492859,193.513596 87.492859,174.168747 87.492859,154.145081 
	C83.041153,164.482010 78.827171,174.266968 74.196533,185.019409 
	C70.917542,180.499756 68.501945,177.170181 65.775322,173.411911 
	C76.674103,160.274200 83.223373,145.024048 87.567497,128.368576 
	C82.705719,128.368576 78.373466,128.040863 74.116371,128.465912 
	C70.287941,128.848160 68.834175,127.618179 69.193565,123.872192 
	C69.395546,121.766953 69.405617,119.643311 69.523079,117.069229 
	C75.723145,117.373184 81.467476,117.654808 87.522018,117.951637 
	C87.522018,109.124947 87.522018,100.738449 87.522018,92.192978 
	C91.980415,92.192978 96.524376,92.192978 101.921158,92.192978 
	C96.595314,99.225220 99.037102,106.704369 98.500366,113.827347 
	C98.252029,117.122894 99.747673,118.279602 102.965622,117.955482 
	C107.395248,117.509308 111.849388,117.306526 116.714394,116.970352 
	C116.714394,120.862076 116.714394,124.275284 116.714394,128.128952 
	C111.024406,128.128952 105.296997,128.128952 98.713257,128.128952 
	C98.713257,134.384033 98.713257,140.438339 98.857330,147.003494 
	C99.001396,147.514328 99.005493,147.728897 99.005493,147.728897 
z"/>
<path fill="#020202" opacity="1.000000" stroke="none" 
	d="
M290.112244,154.551880 
	C293.042542,157.543243 295.611725,160.657196 298.517242,164.178833 
	C288.314362,165.117432 278.990875,165.975128 269.634979,166.835815 
	C267.535095,173.658325 272.685211,176.374725 276.122284,179.398911 
	C277.275024,180.413162 281.024811,179.414047 283.050110,178.330566 
	C290.500519,174.344849 297.725342,169.937515 305.387238,165.484100 
	C307.871857,168.478394 310.567474,171.726959 313.413696,175.156982 
	C304.158936,178.865616 295.334137,182.401947 285.187592,186.467957 
	C296.990814,194.391632 309.248138,195.397079 321.379059,197.341675 
	C319.694824,201.272308 318.070496,205.063095 316.415283,208.925949 
	C304.806244,209.766403 286.779846,200.302719 269.008820,183.585236 
	C269.008820,189.221848 269.008850,194.080917 269.008850,198.939987 
	C269.008850,203.728851 269.008820,208.517715 269.008820,213.719772 
	C265.626740,213.719772 262.102295,213.719772 258.354950,213.719772 
	C258.354950,210.143768 258.329254,206.865860 258.359741,203.588501 
	C258.454163,193.432861 258.483948,183.275391 258.721832,173.122925 
	C258.810944,169.318695 257.406708,167.988144 253.653091,168.734589 
	C251.549133,169.152969 249.341827,169.025421 247.189407,169.230759 
	C237.877472,170.119202 237.878586,170.130890 234.737839,161.817703 
	C253.003754,159.445953 271.377411,157.060196 290.112244,154.551880 
z"/>
<path fill="#020202" opacity="1.000000" stroke="none" 
	d="
M315.991882,113.951782 
	C312.436035,120.765320 309.012543,127.216431 305.381134,134.059372 
	C311.119934,138.059464 317.219055,142.310669 323.988434,147.029083 
	C321.309357,150.629776 318.892456,153.878098 316.131348,157.588989 
	C311.595337,153.512802 307.160156,149.838440 303.102112,145.786407 
	C299.574432,142.263977 296.832886,141.589584 292.905609,145.575912 
	C289.229370,149.307388 284.578735,152.078918 280.271576,155.337509 
	C277.596649,152.899536 275.297577,150.804108 272.866852,148.588730 
	C278.454651,144.649063 284.025726,140.721146 290.483856,136.167831 
	C284.967621,132.624695 280.562347,129.795151 276.171417,126.974815 
	C280.478394,120.111687 281.272430,119.888443 287.715393,123.603477 
	C297.607178,129.307114 297.619598,129.313538 302.877411,119.144775 
	C303.622772,117.703186 304.179169,116.163895 305.129059,113.959778 
	C295.549652,113.959778 286.568604,113.959778 277.278290,113.959778 
	C277.278290,110.486572 277.278290,107.587257 277.278290,104.536606 
	C291.216370,104.536606 304.917542,104.536606 319.205658,104.536606 
	C318.130890,107.694130 317.127594,110.641739 315.991882,113.951782 
z"/>
<path fill="#020202" opacity="1.000000" stroke="none" 
	d="
M288.280701,44.302048 
	C294.638702,45.023289 300.568756,45.636848 306.431458,46.642681 
	C307.738220,46.866867 309.624207,48.304142 309.860413,49.464474 
	C312.076752,60.350914 313.998871,71.297401 315.970398,82.232948 
	C316.049225,82.670265 315.771912,83.171799 315.428528,84.625916 
	C298.452148,73.148758 281.819397,61.903923 265.186676,50.659084 
	C265.206696,50.086903 265.226715,49.514717 265.246735,48.942532 
	C272.773956,47.406986 280.301178,45.871445 288.280701,44.302048 
z"/>
<path fill="#020202" opacity="1.000000" stroke="none" 
	d="
M274.098206,77.058319 
	C259.986328,79.699478 246.299393,82.295540 231.168320,85.165512 
	C233.332733,80.893326 234.739883,77.634956 236.555618,74.622879 
	C241.793381,65.934013 248.455978,58.538509 257.395813,53.545052 
	C259.034058,52.629993 261.971497,51.990704 263.262878,52.831402 
	C272.979858,59.157150 282.434814,65.885391 293.163116,73.312614 
	C286.046173,74.725548 280.284668,75.869385 274.098206,77.058319 
z"/>
<path fill="#010101" opacity="1.000000" stroke="none" 
	d="
M330.919800,100.933960 
	C328.897980,103.738983 327.083588,106.251526 324.440033,109.912323 
	C320.414398,88.644104 316.641632,68.711922 312.717896,47.982002 
	C326.630127,54.425816 338.102722,62.318890 344.986176,75.447372 
	C345.754089,76.911972 345.306030,79.744560 344.344727,81.259010 
	C340.156189,87.857758 335.569427,94.203720 330.919800,100.933960 
z"/>
<path fill="#010101" opacity="1.000000" stroke="none" 
	d="
M331.528198,105.497528 
	C337.122894,97.258293 342.501892,89.307655 347.880890,81.357018 
	C348.369598,81.319069 348.858307,81.281120 349.347015,81.243172 
	C350.820129,86.998245 353.235413,92.704681 353.535645,98.520302 
	C353.940613,106.364944 352.860779,114.308197 352.057526,122.172302 
	C351.918640,123.531876 350.167938,125.565536 348.861908,125.835037 
	C337.986389,128.079330 327.041687,129.989258 316.111664,131.965851 
	C315.682892,132.043381 315.191498,131.774780 313.952057,131.486984 
	C319.867950,122.728928 325.590210,114.257530 331.528198,105.497528 
z"/>
<path fill="#040404" opacity="1.000000" stroke="none" 
	d="
M383.158264,184.999939 
	C383.158447,157.003784 383.157074,129.507660 383.163086,102.011520 
	C383.163422,100.512756 382.845795,98.862831 383.365295,97.557503 
	C383.891937,96.234169 385.274109,95.251320 386.281616,94.119354 
	C387.272766,95.239273 388.584808,96.218163 389.157806,97.521881 
	C389.652985,98.648506 389.331177,100.144310 389.331360,101.476921 
	C389.336029,137.305222 389.369354,173.133621 389.262939,208.961594 
	C389.255585,211.438797 390.821594,215.590042 386.551575,215.789017 
	C381.791901,216.010834 383.290070,211.642929 383.226562,208.995087 
	C383.038788,201.167328 383.158691,193.332184 383.158264,184.999939 
z"/>
<path fill="#020202" opacity="1.000000" stroke="none" 
	d="
M214.833649,201.789062 
	C224.904572,194.482193 234.656189,187.333633 245.137756,179.649979 
	C247.295654,181.419525 250.547882,184.086472 253.737198,186.701843 
	C244.252045,193.955688 235.292679,201.230042 225.879929,207.860764 
	C219.353119,212.458511 219.076065,212.060150 213.180893,206.963867 
	C212.304779,206.206451 211.400009,205.482178 210.140320,204.437149 
	C211.769653,203.509705 213.141998,202.728561 214.833649,201.789062 
z"/>
<path fill="#020202" opacity="1.000000" stroke="none" 
	d="
M208.780396,193.210266 
	C206.616135,191.429779 204.702728,189.895157 203.199921,188.689850 
	C212.159134,181.442047 221.075439,174.228989 230.331161,166.741333 
	C232.632416,168.702789 235.604294,171.235840 238.383423,173.604599 
	C230.299026,180.133698 222.494507,186.601654 214.452469,192.759384 
	C213.201172,193.717499 210.865479,193.259369 208.780396,193.210266 
z"/>
<path fill="#020202" opacity="1.000000" stroke="none" 
	d="
M99.250755,147.978806 
	C99.005493,147.728897 99.001396,147.514328 99.001282,147.407043 
	C101.798393,145.597168 104.595627,143.894577 107.514954,142.117676 
	C108.207741,142.970490 108.766670,143.568832 109.224487,144.236496 
	C112.398399,148.865204 115.551285,153.508331 119.036995,158.625504 
	C116.141808,160.836472 113.361420,162.959778 110.347931,165.261093 
	C106.544914,159.292160 103.020462,153.760437 99.250755,147.978806 
z"/>
<path fill="#080808" opacity="1.000000" stroke="none" 
	d="
M481.744781,181.309845 
	C482.234192,180.304306 482.475525,179.586365 482.757751,178.746735 
	C475.989105,179.123062 472.938721,177.347336 473.200226,172.411224 
	C473.338959,169.792191 474.777618,166.307526 476.792847,164.981094 
	C478.873108,163.611801 482.364563,164.386475 485.803406,164.191116 
	C485.803406,169.403992 486.262909,174.502563 485.679199,179.478745 
	C485.046051,184.876419 479.725159,186.523956 474.251221,182.918777 
	C476.979248,182.421280 479.237976,182.009369 481.744781,181.309845 
M476.222748,169.884323 
	C476.224915,174.857498 478.556946,177.677200 481.107666,175.731781 
	C482.250336,174.860321 482.840729,172.650253 482.821960,171.057785 
	C482.805878,169.694580 481.691742,167.333145 480.833099,167.224030 
	C479.488800,167.053177 477.950409,168.409302 476.222748,169.884323 
z"/>
<path fill="#040404" opacity="1.000000" stroke="none" 
	d="
M442.331696,207.458923 
	C439.311584,198.807602 442.378265,194.507248 450.526703,195.384293 
	C450.910492,193.260300 451.294739,191.133865 451.678986,189.007416 
	C452.300476,189.038574 452.921967,189.069717 453.543427,189.100876 
	C454.563934,195.846054 453.836151,202.694641 453.902832,210.474976 
	C449.767212,209.497314 446.157196,208.643906 442.331696,207.458923 
M446.768066,197.855957 
	C443.476135,199.744385 443.384308,202.576736 444.840607,205.526337 
	C446.030579,207.936584 449.069427,207.873978 450.428650,205.620865 
	C452.073547,202.894196 450.780151,199.300186 446.768066,197.855957 
z"/>
<path fill="#040404" opacity="1.000000" stroke="none" 
	d="
M525.186707,165.908081 
	C529.107178,174.485901 525.973267,179.389160 517.612732,178.745041 
	C517.041626,180.623871 516.483032,182.461395 515.924438,184.298904 
	C515.405640,184.159973 514.886841,184.021042 514.368042,183.882095 
	C514.368042,177.498856 514.368042,171.115616 514.368042,164.123459 
	C517.906799,164.624481 521.412598,165.120819 525.186707,165.908081 
M518.815857,175.921082 
	C522.837219,177.003082 524.187073,174.444290 523.764099,171.388046 
	C523.531921,169.710724 521.186890,166.942825 519.990051,167.041321 
	C516.399292,167.336868 516.973328,170.651825 517.132629,173.245239 
	C517.178833,173.998001 517.775696,174.716949 518.815857,175.921082 
z"/>
<path fill="#080808" opacity="1.000000" stroke="none" 
	d="
M501.227783,166.458084 
	C502.593323,165.569214 504.599304,163.936615 505.838043,164.391846 
	C507.498199,165.001938 509.371460,167.069382 509.710144,168.794434 
	C510.328094,171.941681 509.885834,175.297089 509.885834,179.158249 
	C506.166412,177.029007 500.325623,181.859360 499.459808,175.354935 
	C499.193115,173.351166 503.287964,170.766861 505.981445,167.789932 
	C505.056610,167.552063 503.291565,167.098083 501.227783,166.458084 
z"/>
<path fill="#020202" opacity="1.000000" stroke="none" 
	d="
M402.000092,175.557816 
	C401.993408,171.294403 401.977020,167.485977 401.996094,163.677734 
	C402.009888,160.929367 401.279144,157.824341 405.873322,157.952194 
	C409.891907,158.064041 413.268433,158.833359 413.884705,163.484283 
	C414.345673,166.963181 413.026031,169.680817 409.511200,170.913513 
	C408.275208,171.346985 406.964081,171.566269 405.441284,171.944427 
	C405.150787,174.191422 404.864716,176.404144 404.578644,178.616867 
	C404.205261,178.744324 403.831848,178.871780 403.458435,178.999237 
	C402.974152,178.003784 402.489868,177.008331 402.000092,175.557816 
M407.992035,168.769104 
	C408.918610,166.899399 410.535522,165.017120 410.501770,163.164902 
	C410.482819,162.125366 407.733856,161.135590 406.214905,160.123383 
	C405.561279,160.602905 404.907684,161.082413 404.254089,161.561920 
	C405.232941,164.009796 406.211792,166.457657 407.992035,168.769104 
z"/>
<path fill="#020202" opacity="1.000000" stroke="none" 
	d="
M418.806763,158.208725 
	C419.652100,160.337692 420.079346,162.393326 420.282776,163.372040 
	C423.202728,164.459808 427.133453,164.817429 427.646057,166.331940 
	C428.949249,170.182236 428.722839,174.550247 429.108704,178.711029 
	C428.239471,178.771072 427.370270,178.831116 426.501038,178.891174 
	C426.330139,176.523941 426.458282,174.082199 425.893066,171.813217 
	C425.447296,170.023712 424.147919,168.446869 423.227661,166.775574 
	C422.155853,168.500320 420.667267,170.103973 420.121765,171.981644 
	C419.493591,174.143814 419.698792,176.548096 419.474792,179.834335 
	C418.052917,178.572861 417.244873,178.192825 417.238678,177.800140 
	C417.142242,171.672241 417.124207,165.542435 417.186951,159.414078 
	C417.191376,158.983795 417.970062,158.561432 418.806763,158.208725 
z"/>
<path fill="#020202" opacity="1.000000" stroke="none" 
	d="
M542.006836,173.009766 
	C541.828735,175.257156 541.650635,177.060944 541.472473,178.864716 
	C540.812622,178.872726 540.152771,178.880737 539.492920,178.888733 
	C539.324768,176.540649 539.449280,174.120667 538.895874,171.867203 
	C538.453186,170.064850 537.186035,168.465027 536.284790,166.775314 
	C535.194092,168.480774 533.670227,170.059799 533.125854,171.924728 
	C532.491211,174.099045 532.712646,176.523285 532.515991,179.559250 
	C529.452515,176.233292 529.158813,162.188843 531.996765,156.891235 
	C532.629639,160.134338 533.055908,162.318817 533.485657,164.521179 
	C540.613831,163.633896 541.837402,164.790115 542.006836,173.009766 
z"/>
<path fill="#080808" opacity="1.000000" stroke="none" 
	d="
M553.905518,164.951172 
	C554.932068,164.877625 555.770813,165.124725 556.609619,165.371826 
	C553.870667,171.491852 551.177551,177.633545 548.317505,183.696472 
	C548.048096,184.267624 546.727783,184.343018 544.999084,184.468933 
	C553.100647,177.399628 545.001587,171.189835 544.722839,164.615372 
	C546.657227,164.767166 547.118591,165.371613 551.009888,172.925323 
	C552.060364,169.956329 552.889038,167.614059 553.905518,164.951172 
z"/>
<path fill="#080808" opacity="1.000000" stroke="none" 
	d="
M410.399811,191.727982 
	C408.431549,192.333725 406.853485,192.918839 405.275421,193.503967 
	C406.495361,195.062302 407.450531,196.981918 408.987244,198.108063 
	C412.873810,200.956299 414.093567,204.127335 411.996002,207.275208 
	C409.908539,210.407913 405.778656,210.723083 401.411835,207.287262 
	C403.619995,207.287262 405.022308,207.579361 406.218201,207.207550 
	C407.488739,206.812515 409.251373,205.981857 409.532654,204.984344 
	C409.820648,203.962936 408.831604,202.268494 407.933228,201.305542 
	C406.837067,200.130524 404.522217,199.689789 404.042084,198.432236 
	C403.216553,196.269928 402.341461,192.661026 403.415894,191.584839 
	C404.999023,189.999084 408.274139,190.102478 410.828613,189.486420 
	C410.815735,190.226730 410.802856,190.967056 410.399811,191.727982 
z"/>
<path fill="#080808" opacity="1.000000" stroke="none" 
	d="
M444.962463,167.294922 
	C445.392883,168.436462 445.794830,169.207794 445.879425,170.012482 
	C446.302704,174.039032 445.243988,177.835663 440.981384,178.515182 
	C438.845215,178.855713 435.427368,177.187729 434.116608,175.342880 
	C431.817688,172.107300 432.445709,168.111984 435.697083,165.507004 
	C438.935516,162.912415 442.205994,163.595200 444.962463,167.294922 
M442.929626,172.251068 
	C442.756012,169.216797 442.666626,165.664169 438.260345,167.102936 
	C437.075287,167.489883 436.312225,170.661362 436.282806,172.568924 
	C436.263275,173.833008 437.894440,175.122559 438.786621,176.400696 
	C440.131500,175.269119 441.476410,174.137543 442.929626,172.251068 
z"/>
<path fill="#080808" opacity="1.000000" stroke="none" 
	d="
M472.387909,209.633118 
	C469.655731,208.667816 466.526001,208.168777 465.094147,206.340195 
	C462.539124,203.077179 464.136963,197.683533 467.496185,195.917801 
	C470.788849,194.187073 473.683289,194.917755 475.766632,197.965546 
	C478.358521,201.757324 477.117920,206.233398 472.387909,209.633118 
M472.483643,206.662567 
	C472.780121,204.337067 473.456787,201.961197 473.159241,199.714355 
	C473.059998,198.964935 470.467133,198.545746 469.014191,197.975601 
	C468.422699,200.069336 467.168976,202.271896 467.488434,204.215912 
	C467.679718,205.379745 470.332153,206.139130 472.483643,206.662567 
z"/>
<path fill="#080808" opacity="1.000000" stroke="none" 
	d="
M458.456024,168.767349 
	C461.447906,163.930115 465.069458,162.800659 468.345398,165.353592 
	C471.464783,167.784531 472.250183,173.824341 469.145721,176.485886 
	C467.467560,177.924606 464.165405,178.852417 462.150116,178.226425 
	C457.964874,176.926407 457.562653,173.053925 458.456024,168.767349 
M467.326508,168.569122 
	C465.995422,167.980865 464.664337,167.392609 463.333221,166.804321 
	C462.646698,168.995560 461.524109,171.175598 461.467407,173.383011 
	C461.441193,174.404526 463.493256,175.479431 464.603027,176.530106 
	C465.717957,174.919174 466.953796,173.373703 467.880859,171.661087 
	C468.196533,171.077957 467.734985,170.074097 467.326508,168.569122 
z"/>
<path fill="#080808" opacity="1.000000" stroke="none" 
	d="
M419.641418,132.379074 
	C422.296356,133.199753 425.393433,133.529297 426.689362,135.230713 
	C429.100769,138.396713 428.618164,142.260727 425.659149,145.200043 
	C423.191132,147.651672 420.135681,147.714340 417.556366,145.461380 
	C414.380859,142.687714 414.233093,139.048965 416.084351,135.476654 
	C416.713593,134.262405 418.184509,133.484329 419.641418,132.379074 
M418.672485,136.568680 
	C418.463959,137.524246 417.853821,138.620377 418.129028,139.406647 
	C418.734711,141.136948 419.656311,142.816544 420.799683,144.233963 
	C420.970581,144.445816 423.962189,143.243515 424.056427,142.494949 
	C424.342010,140.226257 423.845490,137.859100 423.653687,135.530304 
	C422.116302,135.660797 420.578888,135.791290 418.672485,136.568680 
z"/>
<path fill="#020202" opacity="1.000000" stroke="none" 
	d="
M428.998413,198.324280 
	C429.006348,199.429779 428.935913,200.105392 429.022705,200.760178 
	C429.343994,203.183990 427.915771,206.965790 431.882294,207.056488 
	C435.838257,207.146927 434.737549,203.418365 434.990753,200.932861 
	C435.189056,198.986221 435.403534,197.041229 435.610840,195.095520 
	C436.151550,195.110931 436.692261,195.126343 437.232971,195.141754 
	C437.232971,199.847137 437.232971,204.552536 437.232971,209.574585 
	C436.718109,209.491394 435.838715,209.332489 434.954346,209.209579 
	C432.362732,208.849426 427.989166,209.210541 427.515259,208.017441 
	C426.177185,204.648636 426.377441,200.648315 426.140533,196.886200 
	C426.107391,196.359772 427.022888,195.773621 427.499268,195.215103 
	C427.996918,196.105011 428.494568,196.994919 428.998413,198.324280 
z"/>
<path fill="#020202" opacity="1.000000" stroke="none" 
	d="
M452.991150,137.078461 
	C453.165649,135.136459 453.339325,133.633911 453.513000,132.131378 
	C454.053192,132.143860 454.593414,132.156357 455.133606,132.168854 
	C455.133606,136.940231 455.133606,141.711624 455.133606,147.415543 
	C451.783112,146.456772 446.658783,146.495117 445.189941,144.197037 
	C443.264740,141.184937 444.224030,136.329178 443.942657,132.266418 
	C444.715759,132.202988 445.488892,132.139572 446.261993,132.076141 
	C446.511566,133.943726 446.748535,135.813080 447.013763,137.678436 
	C447.358490,140.103027 445.905060,143.955338 449.798981,144.040955 
	C454.100433,144.135529 452.648712,140.096375 452.991150,137.078461 
z"/>
<path fill="#010101" opacity="1.000000" stroke="none" 
	d="
M401.996460,141.726593 
	C401.995880,136.452744 401.995880,131.645966 401.995880,126.522156 
	C405.481445,126.522156 408.546417,126.522156 411.611389,126.522156 
	C411.668304,126.914894 411.725220,127.307625 411.782135,127.700363 
	C409.666870,128.148758 407.551605,128.597168 405.239929,129.087204 
	C405.239929,130.973206 405.239929,132.764450 405.239929,134.829102 
	C407.415405,135.324448 409.546997,135.809799 411.678558,136.295151 
	C411.697937,136.691345 411.717285,137.087524 411.736633,137.483704 
	C409.787811,137.753830 407.838959,138.023956 405.506866,138.347214 
	C405.138580,141.136307 404.757660,144.021103 404.376740,146.905884 
	C403.786224,146.913864 403.195679,146.921829 402.605164,146.929794 
	C402.402435,145.351089 402.199707,143.772369 401.996460,141.726593 
z"/>
<path fill="#080808" opacity="1.000000" stroke="none" 
	d="
M464.000610,134.384308 
	C460.305176,136.865860 463.348511,137.499527 464.854462,138.414505 
	C467.433197,139.981232 469.180573,142.023483 467.073395,144.843506 
	C464.884705,147.772583 462.051361,147.537323 459.323975,144.859756 
	C461.091736,144.575180 462.859528,144.290604 464.784271,143.980759 
	C464.587280,139.549286 455.095642,138.924759 460.854401,133.238678 
	C461.989105,132.118301 464.668793,132.562653 466.635956,132.285370 
	C466.687164,132.840240 466.738373,133.395096 466.789581,133.949951 
	C465.970367,134.079025 465.151184,134.208099 464.000610,134.384308 
z"/>
<path fill="#080808" opacity="1.000000" stroke="none" 
	d="
M434.219513,138.336273 
	C434.865112,143.548630 434.865112,143.548630 440.621552,145.092026 
	C438.412415,147.361359 436.178192,147.552750 433.712280,145.683914 
	C430.797363,143.474792 429.954346,138.502335 432.269348,135.298599 
	C434.466187,132.258423 437.325928,130.852173 440.959198,132.949936 
	C438.591522,134.727020 436.445709,136.337601 434.219513,138.336273 
z"/>
<path fill="#020202" opacity="1.000000" stroke="none" 
	d="
M417.186340,193.167450 
	C419.263275,193.758179 421.199677,194.684875 423.320160,195.699677 
	C418.582153,198.618027 418.936523,204.763687 422.830750,209.383408 
	C419.454132,210.617645 417.725433,209.346313 417.112183,206.152786 
	C416.482910,202.876053 415.790375,199.598495 415.450348,196.287949 
	C415.361542,195.423538 416.481171,194.434982 417.186340,193.167450 
z"/>
<path fill="#020202" opacity="1.000000" stroke="none" 
	d="
M449.994232,171.128540 
	C450.587830,167.556915 446.476013,163.754776 451.542969,161.083832 
	C452.829041,162.288651 454.184387,163.558365 455.621765,164.904938 
	C451.896881,168.704391 451.831879,173.669647 455.691559,177.797745 
	C451.205414,179.657547 450.162964,178.515274 449.994232,171.128540 
z"/>
<path fill="#020202" opacity="1.000000" stroke="none" 
	d="
M490.384094,178.185486 
	C490.175537,173.360413 490.175537,168.924561 490.175537,164.613464 
	C492.490479,164.613464 494.505188,164.613464 496.774811,164.613464 
	C496.774811,165.153580 496.947723,166.230286 496.749298,166.303726 
	C492.673828,167.812073 493.095306,171.213974 492.909668,174.557755 
	C492.828217,176.025162 494.460815,179.079025 490.384094,178.185486 
z"/>
<path fill="#010101" opacity="1.000000" stroke="none" 
	d="
M458.118073,196.623260 
	C459.043671,196.155533 459.902435,196.125046 460.761200,196.094559 
	C460.761200,200.656128 460.761200,205.217697 460.761200,209.779282 
	C460.043610,209.811432 459.326019,209.843597 458.608429,209.875748 
	C457.398071,205.740845 458.216064,201.335052 458.118073,196.623260 
z"/>
<path fill="#5B5B5B" opacity="1.000000" stroke="none" 
	d="
M144.770294,184.809021 
	C153.499527,179.718704 161.911499,174.805756 171.355331,169.290161 
	C171.355331,176.320511 171.434891,182.242340 171.260895,188.156738 
	C171.237503,188.951920 169.944946,190.374908 169.224930,190.384628 
	C158.519638,190.529251 147.811768,190.484497 136.876373,189.487274 
	C139.401932,187.986984 141.927475,186.486694 144.770294,184.809021 
z"/>
<path fill="#5D5D5D" opacity="1.000000" stroke="none" 
	d="
M148.012451,159.006348 
	C143.374741,159.006348 139.233978,159.006348 134.641754,159.006348 
	C134.641754,152.535858 134.641754,146.477356 134.641754,139.174515 
	C146.257401,145.573425 157.384186,151.703018 168.510971,157.832626 
	C168.407242,158.223862 168.303513,158.615112 168.199783,159.006363 
	C161.636307,159.006363 155.072845,159.006363 148.012451,159.006348 
z"/>
<path fill="#5F5F5F" opacity="1.000000" stroke="none" 
	d="
M171.425507,116.212448 
	C171.428589,128.994522 171.428589,128.994537 159.166946,128.994553 
	C152.025986,128.994553 144.885040,128.994537 137.744080,128.994537 
	C137.588028,128.620865 137.431976,128.247192 137.275925,127.873512 
	C148.257355,121.875465 159.238785,115.877419 171.029816,109.437172 
	C171.204758,112.232285 171.314697,113.988853 171.425507,116.212448 
z"/>
<path fill="#5B5B5B" opacity="1.000000" stroke="none" 
	d="
M160.469238,92.625656 
	C161.317673,91.056152 162.099014,89.444939 163.377121,88.757835 
	C163.909714,88.471527 165.955917,89.942223 166.452118,91.013237 
	C166.791641,91.746101 165.674667,94.090004 165.151474,94.108696 
	C163.650818,94.162300 162.120972,93.399033 160.469238,92.625656 
z"/>
<path fill="#5B5B5B" opacity="1.000000" stroke="none" 
	d="
M244.962280,130.192169 
	C239.200775,130.192184 233.932846,130.192184 228.337082,130.192184 
	C228.337082,127.322975 228.337082,125.108650 228.337082,122.257614 
	C236.831146,122.257614 245.086624,122.136543 253.326492,122.439484 
	C254.177582,122.470772 255.594070,125.051682 255.546021,126.406944 
	C255.500900,127.680107 254.056427,129.685501 252.885620,129.972275 
	C250.532257,130.548660 247.945999,130.174225 244.962280,130.192169 
z"/>
<path fill="#5D5D5D" opacity="1.000000" stroke="none" 
	d="
M251.617706,114.948929 
	C243.696167,114.952843 236.232056,114.952843 228.393951,114.952843 
	C228.393951,112.208534 228.393951,109.984612 228.393951,107.045059 
	C236.713043,107.045059 244.986557,106.942566 253.248962,107.198235 
	C254.107040,107.224785 255.370041,109.285179 255.622665,110.564323 
	C256.125519,113.110664 255.499954,115.309189 251.617706,114.948929 
z"/>
<path fill="#5D5D5D" opacity="1.000000" stroke="none" 
	d="
M254.681747,143.837646 
	C245.803787,145.049271 237.283997,146.048264 228.851990,147.036972 
	C226.885574,138.123901 227.210236,137.690643 235.231583,137.678970 
	C240.386963,137.671463 245.547256,137.822708 250.696320,137.643616 
	C255.349594,137.481750 256.846710,139.266205 254.681747,143.837646 
z"/>
<path fill="#5B5B5B" opacity="1.000000" stroke="none" 
	d="
M476.358490,169.501480 
	C477.950409,168.409302 479.488800,167.053177 480.833099,167.224030 
	C481.691742,167.333145 482.805878,169.694580 482.821960,171.057785 
	C482.840729,172.650253 482.250336,174.860321 481.107666,175.731781 
	C478.556946,177.677200 476.224915,174.857498 476.358490,169.501480 
z"/>
<path fill="#5B5B5B" opacity="1.000000" stroke="none" 
	d="
M447.176880,197.788620 
	C450.780151,199.300186 452.073547,202.894196 450.428650,205.620865 
	C449.069427,207.873978 446.030579,207.936584 444.840607,205.526337 
	C443.384308,202.576736 443.476135,199.744385 447.176880,197.788620 
z"/>
<path fill="#5B5B5B" opacity="1.000000" stroke="none" 
	d="
M518.468018,175.686234 
	C517.775696,174.716949 517.178833,173.998001 517.132629,173.245239 
	C516.973328,170.651825 516.399292,167.336868 519.990051,167.041321 
	C521.186890,166.942825 523.531921,169.710724 523.764099,171.388046 
	C524.187073,174.444290 522.837219,177.003082 518.468018,175.686234 
z"/>
<path fill="#5B5B5B" opacity="1.000000" stroke="none" 
	d="
M407.591339,168.837311 
	C406.211792,166.457657 405.232941,164.009796 404.254089,161.561920 
	C404.907684,161.082413 405.561279,160.602905 406.214905,160.123383 
	C407.733856,161.135590 410.482819,162.125366 410.501770,163.164902 
	C410.535522,165.017120 408.918610,166.899399 407.591339,168.837311 
z"/>
<path fill="#5B5B5B" opacity="1.000000" stroke="none" 
	d="
M442.875488,172.628525 
	C441.476410,174.137543 440.131500,175.269119 438.786621,176.400696 
	C437.894440,175.122559 436.263275,173.833008 436.282806,172.568924 
	C436.312225,170.661362 437.075287,167.489883 438.260345,167.102936 
	C442.666626,165.664169 442.756012,169.216797 442.875488,172.628525 
z"/>
<path fill="#5B5B5B" opacity="1.000000" stroke="none" 
	d="
M472.181000,206.871429 
	C470.332153,206.139130 467.679718,205.379745 467.488434,204.215912 
	C467.168976,202.271896 468.422699,200.069336 469.014191,197.975601 
	C470.467133,198.545746 473.059998,198.964935 473.159241,199.714355 
	C473.456787,201.961197 472.780121,204.337067 472.181000,206.871429 
z"/>
<path fill="#5B5B5B" opacity="1.000000" stroke="none" 
	d="
M467.477539,168.915802 
	C467.734985,170.074097 468.196533,171.077957 467.880859,171.661087 
	C466.953796,173.373703 465.717957,174.919174 464.603027,176.530121 
	C463.493256,175.479431 461.441193,174.404526 461.467407,173.383011 
	C461.524109,171.175598 462.646698,168.995560 463.333252,166.804337 
	C464.664337,167.392609 465.995422,167.980865 467.477539,168.915802 
z"/>
<path fill="#5B5B5B" opacity="1.000000" stroke="none" 
	d="
M418.856995,136.245224 
	C420.578888,135.791290 422.116302,135.660797 423.653687,135.530304 
	C423.845490,137.859100 424.342010,140.226257 424.056427,142.494949 
	C423.962189,143.243515 420.970581,144.445816 420.799683,144.233963 
	C419.656311,142.816544 418.734711,141.136948 418.129028,139.406647 
	C417.853821,138.620377 418.463959,137.524246 418.856995,136.245224 
z"/>
</svg>