<?xml version="1.0" encoding="UTF-8"?>
<svg id="_圖層_1" data-name="圖層 1" xmlns="http://www.w3.org/2000/svg" viewBox="0 0 340.16 340.16">
  <defs>
    <style>
      .cls-1 {
        fill: #fff;
        stroke-width: 0px;
      }
    </style>
  </defs>
  <g>
    <g>
      <path class="cls-1" d="M276.29,161.52l-.16-1.34c-.12-.96-.23-1.92-.38-2.88h0c-1.52-10.09-5.21-18.94-10.96-26.3-12.47-15.95-28.67-24.04-48.18-24.04-.07,0-.15,0-.22,0-2.77,0-5.57.17-8.34.48-9.93,1.12-19.02,4.73-27.03,10.72-11.91,8.92-19.57,19.93-22.76,32.74-.11.45-.01.92.27,1.29.28.36.72.58,1.18.58h4.79c.67,0,1.26-.44,1.44-1.09,6.33-21.99,27.08-37.35,50.45-37.35.07,0,.14,0,.17,0,28.82.08,52.23,23.09,52.19,51.28-.03,19.48-11.22,37-29.21,45.72-.52.25-.85.77-.85,1.35v4.77c0,.5.25.98.68,1.25.25.16.54.25.82.25.2,0,.41-.04.6-.12,9.58-4.15,17.62-10.42,23.9-18.64,5.85-7.66,9.58-16.56,11.06-26.47.14-.96.26-1.92.38-2.88l.16-1.34c0-.06.01-.13.01-.19v-7.59c0-.06,0-.13-.01-.19Z"/>
      <path class="cls-1" d="M230.63,121.86c-2.7-.64-5.4-1.36-8.15-1.71-1.42-.18-2.84-.24-4.26-.24-3.76,0-7.49.57-11.17,1.51-2.57.65-5.07,1.56-7.86,2.44,6.4,4.33,12.72,8.61,19.04,12.89,6.03,4.08,12.05,8.16,18.13,12.28-.37-1.97-.69-3.66-1-5.36-1.27-6.91-2.54-13.82-3.85-20.72-.08-.41-.51-1-.87-1.08Z"/>
      <path class="cls-1" d="M260.56,178.23c.41-.08.99-.51,1.08-.88.64-2.74,1.37-5.47,1.71-8.25.62-5.1.04-10.16-1.24-15.12-.68-2.63-1.58-5.2-2.46-8.09-8.48,12.53-16.75,24.74-25.17,37.18,1.97-.37,3.67-.68,5.37-1,6.91-1.27,13.82-2.53,20.72-3.85Z"/>
      <path class="cls-1" d="M242.89,165.86c4.48-6.47,8.97-12.94,13.45-19.42,1.7-2.45,1.68-2.44.16-4.99-3.38-5.68-7.91-10.26-13.44-13.81-2.82-1.81-5.83-3.32-8.76-4.97-.09.09-.18.19-.27.28,2.74,14.5,5.48,29.01,8.26,43.73.31-.43.45-.63.59-.82Z"/>
      <path class="cls-1" d="M218.23,139.88c-6.95-4.81-13.9-9.61-20.83-14.44-.57-.4-1-.27-1.52,0-4.86,2.46-8.93,5.9-12.43,10.05-3.34,3.97-5.95,8.38-8.09,13.43,14.38-2.72,28.55-5.4,42.86-8.11.32-.06.65-.12.97-.18-.29-.24-.39-.34-.5-.42-.16-.11-.31-.22-.47-.33Z"/>
    </g>
    <g>
      <path class="cls-1" d="M66.47,126.81v-8.24c2.81.39,8.43.77,13.48.87v-2.81c0-6.39-.2-12.02-.88-16.38,3.39.58,5.52.58,8.53.28,2.13-.28,2.62.78.58,2.42-.87.78-1.07,1.46-1.07,2.82v13.76c5.04-.2,10.66-.58,13.47-.97v8.24c-2.81-.29-8.33-.58-13.47-.58v42.65c0,5.33.19,12.02.68,19h-8.72c.68-7.08.88-13.67.88-19v-26.75c-3.2,9.79-6.3,17.16-10.47,24.91-1.94-3.1-3.29-4.94-5.62-7.95,6.98-7.85,11.63-17.54,16.09-32.85v-.1c-5.14.1-10.66.39-13.48.68ZM95.65,153.27c-2.13-4.17-4.85-8.82-7.75-12.89l6.01-3.58c2.81,3.97,5.43,7.56,7.95,11.73l-6.2,4.74ZM112.9,178.27v9.11h-8.24c.48-5.03.68-9.4.68-15.4v-56.8c0-3.49-.19-7.27-.68-10.47,3.49.58,12.21.96,21.9.96s17.74-.29,21.81-.96c-.39,2.71-.58,6.2-.58,10.47v56.12c0,5.91.19,10.37.58,15.41h-8.34v-8.43h-27.14ZM112.9,127.39h27.14v-14.83M112.9,133.98v15.03h27.14M112.9,171.68h27.14v-15.89"/>
      <path class="cls-1" d="M179.26,213.81c-.97.09-3.78,1.64-5.43,3.58-3.2,3.68-8.43,7.85-13.57,10.86-1.45-1.94-3.49-3.5-6.2-4.95,7.85-3.78,13.08-8.14,19.87-15.8,1.74,1.94,3,3.01,5.52,4.85,1.45.97,1.36,1.36-.19,1.46ZM156.48,165.44v-7.66c4.46.58,8.53.77,24.91.77s19.97-.19,24.91-.77v7.66c-2.81-.29-4.94-.48-6.88-.58v25.88c1.74-.29,3.39-.68,4.85-.97-.78,2.23-1.07,3.69-.97,5.91-1.26.1-2.52.29-3.78.48.1,1.46.29,3.01.49,4.46h-7.66c.1-1.16.2-2.42.29-3.58-17.74,2.33-28.88,4.17-34.79,5.82-.19-2.81-.77-5.52-2.13-8.24,2.62,0,6.1-.09,9.98-.29v-29.66c-3.29.09-5.72.29-9.21.77ZM189.72,223.5c-1.16.1-3.49,1.65-5.72,3.78-5.33,5.14-11.34,9.98-18.51,13.08-1.16-1.94-3.01-3.59-5.62-5.33,9.79-4.46,16.86-10.37,24.52-18.51,1.74,1.93,3.59,3.39,6.11,5.23,1.36.97.68,1.64-.78,1.74ZM172.57,164.66v6.11h20.25v-6.11h-20.25ZM192.82,175.71h-20.25v6.11h20.25v-6.11ZM192.82,186.76h-20.25v7.08c6.69-.49,13.96-1.17,20.25-2.04v-5.04ZM179.64,210.22c-.49-2.81-1.16-4.65-2.81-6.68,5.33.09,21.23-.77,28.11-1.65,5.33-.68,11.44-1.94,13.86-3.1.78,2.72,2.23,5.04,3.39,6.01,1.65,1.36,1.36,1.94-.19,1.65-1.46-.29-5.04-.29-8.82.2-3.87.48-7.56.97-11.14,1.36v3.87c2.13,2.52,4.17,4.66,6.3,6.59,8.53-3.78,15.61-8.14,19.97-11.82,1.07,2.04,3.97,5.43,5.33,6.59.78.68.68,1.45-.77,1.65-3.1.48-6.49,1.26-19.29,7.56,7.46,4.74,15.8,6.49,26.56,7.56-1.65,2.42-3.29,6.1-3.78,8.72-15.22-3.2-26.94-9.01-34.31-20.16v11.44c0,3,.19,8.24.58,11.92h-8.24c.29-3.68.58-8.92.58-11.92v-21.23c-4.94.48-9.89.97-15.31,1.45ZM209.88,199.66c-.87-1.74-2.71-3.5-5.23-4.95,4.75-2.23,9.21-5.33,13.08-9.01-3.49-2.52-7.17-4.75-10.76-6.59l4.75-4.36c3.2,1.85,6.78,3.88,10.47,6.11,2.71-3.49,5.04-7.36,6.69-11.53-12.89,0-18.13.19-20.74.58v-7.07c2.62.39,7.66.68,15.02.68s12.5-.29,15.22-.68c-2.52,8.33-5.91,15.22-10.76,21.42,5.04,3.2,9.98,6.49,13.96,9.6l-5.62,7.46c-3.59-3.97-8.14-8.04-13.08-11.82-3.59,3.49-7.95,6.88-12.99,10.18Z"/>
      <path class="cls-1" d="M137.71,96.52c-.3-.64-.95-1.04-1.65-1.04h-19.19c-.7,0-1.34.4-1.65,1.02l-5.28,10.74h32.89l-5.12-10.72ZM134.11,102.82c-1.41,0-2.56-1.15-2.56-2.56s1.15-2.56,2.56-2.56,2.56,1.15,2.56,2.56-1.15,2.56-2.56,2.56Z"/>
    </g>
  </g>
  <g>
    <path class="cls-1" d="M86.15,210.11v-15.35h7.99v1.95h-5.66v4.73h5.26v1.93h-5.26v6.74h-2.33Z"/>
    <path class="cls-1" d="M106.17,204.48c0,4.14-2.69,5.85-5.18,5.85-2.87,0-5.05-2.12-5.05-5.68s2.28-5.84,5.22-5.84,5.02,2.28,5.02,5.67ZM101.07,200.56c-1.99,0-2.75,2.13-2.75,4.03,0,2.16,1.02,4,2.73,4s2.73-1.83,2.73-4.03c0-1.83-.76-4-2.71-4Z"/>
    <path class="cls-1" d="M115.93,209.76c-.52.25-1.56.57-2.85.57-3.19,0-5.28-2.19-5.28-5.65s2.16-5.88,5.72-5.88c1.06,0,1.99.26,2.47.5l-.46,1.78c-.4-.2-1.04-.44-1.99-.44-2.16,0-3.37,1.77-3.37,3.94,0,2.43,1.43,3.88,3.35,3.88.92,0,1.56-.23,2.09-.44l.32,1.74Z"/>
    <path class="cls-1" d="M127.02,206.93c0,1.25.06,2.3.1,3.18h-2.05l-.12-1.61h-.06c-.46.76-1.55,1.83-3.33,1.83-1.91,0-3.57-1.19-3.57-4.72v-6.58h2.33v6.2c0,1.9.54,3.18,2.06,3.18,1.06,0,2.31-.84,2.31-2.51v-6.85h2.33v7.88Z"/>
    <path class="cls-1" d="M135.51,201.14c-.45-.29-1.21-.63-2.11-.63-1.04,0-1.61.61-1.61,1.34s.51,1.15,1.85,1.74c1.83.74,2.79,1.74,2.79,3.34,0,2.13-1.63,3.4-4.13,3.4-1.16,0-2.27-.31-3.01-.75l.52-1.72c.56.35,1.59.74,2.53.74,1.25,0,1.85-.59,1.85-1.44s-.46-1.31-1.79-1.87c-1.96-.78-2.83-1.89-2.83-3.18,0-1.84,1.51-3.31,3.84-3.31,1.08,0,2.03.3,2.63.64l-.52,1.69Z"/>
    <path class="cls-1" d="M85.94,216.39c.52-.09,1.21-.17,2.1-.17,1.06,0,1.86.23,2.38.69.48.41.78,1.07.78,1.86,0,2.1-1.67,2.82-3.23,2.82-.27,0-.52,0-.73-.05v3.38h-1.3v-8.53ZM87.23,220.49c.19.05.43.07.73.07,1.2,0,1.92-.62,1.92-1.72s-.72-1.58-1.77-1.58c-.4,0-.71.04-.88.07v3.16Z"/>
    <path class="cls-1" d="M97.6,224.92h-1.31v-3.63c0-.9-.3-1.64-1.19-1.64-.64,0-1.33.53-1.33,1.46v3.8h-1.31v-9.04h1.31v3.68h.02c.4-.64,1.11-.98,1.78-.98.94,0,2.02.63,2.02,2.59v3.76Z"/>
    <path class="cls-1" d="M104.61,221.76c0,2.33-1.51,3.29-2.91,3.29-1.61,0-2.84-1.19-2.84-3.2s1.28-3.28,2.93-3.28,2.82,1.28,2.82,3.19ZM101.75,219.56c-1.12,0-1.55,1.2-1.55,2.27,0,1.22.57,2.25,1.53,2.25s1.53-1.03,1.53-2.27c0-1.03-.43-2.25-1.52-2.25Z"/>
    <path class="cls-1" d="M106.17,217.58l1.3-.4v1.53h1.48v.98h-1.48v3.15c0,.77.24,1.14.79,1.14.26,0,.42-.03.57-.08l.04,1.01c-.22.09-.57.15-1.01.15-.52,0-.96-.17-1.23-.47-.32-.34-.46-.86-.46-1.67v-3.22h-.88v-.98h.88v-1.13Z"/>
    <path class="cls-1" d="M115.44,221.76c0,2.33-1.51,3.29-2.91,3.29-1.61,0-2.84-1.19-2.84-3.2s1.28-3.28,2.93-3.28,2.82,1.28,2.82,3.19ZM112.57,219.56c-1.12,0-1.55,1.2-1.55,2.27,0,1.22.57,2.25,1.53,2.25s1.53-1.03,1.53-2.27c0-1.03-.43-2.25-1.52-2.25Z"/>
    <path class="cls-1" d="M121.93,218.71c-.03.44-.06.96-.06,1.8v3.54c0,1.24-.1,3.54-3.04,3.54-.72,0-1.48-.16-1.96-.45l.29-1.02c.38.23.98.44,1.68.44,1.01,0,1.73-.56,1.73-1.97v-.6h-.02c-.31.53-.92.92-1.72.92-1.47,0-2.47-1.3-2.47-3.03,0-2.11,1.27-3.28,2.63-3.28.93,0,1.44.47,1.7.97h.02l.06-.84h1.16ZM120.56,221.11c0-.83-.54-1.5-1.34-1.5-.9,0-1.53.86-1.53,2.19,0,1.22.55,2.09,1.52,2.09.68,0,1.35-.52,1.35-1.56v-1.22Z"/>
    <path class="cls-1" d="M126.67,219.86c-.11-.02-.24-.03-.38-.03-.88,0-1.43.72-1.43,1.8v3.3h-1.31v-4.32c0-.72-.01-1.32-.05-1.9h1.14l.05,1.14h.04c.28-.79.94-1.28,1.61-1.28.12,0,.21.01.33.03v1.25Z"/>
    <path class="cls-1" d="M132.04,223.45c0,.53.01,1.07.09,1.48h-1.19l-.09-.72h-.03c-.35.49-.96.85-1.74.85-1.16,0-1.82-.86-1.82-1.82,0-1.54,1.34-2.31,3.47-2.31,0-.46,0-1.39-1.25-1.39-.55,0-1.12.17-1.51.43l-.27-.86c.44-.29,1.17-.52,2.01-.52,1.83,0,2.33,1.21,2.33,2.53v2.35ZM130.77,221.8c-1.03,0-2.21.19-2.21,1.3,0,.69.43.99.91.99.71,0,1.3-.54,1.3-1.26v-1.02Z"/>
    <path class="cls-1" d="M134.89,219.66c.43-.7,1.1-1.08,1.97-1.08,1.4,0,2.45,1.24,2.45,3.17,0,2.28-1.32,3.31-2.63,3.31-.75,0-1.35-.35-1.66-.86h-.02v3.25h-1.31v-6.72c0-.81-.02-1.46-.05-2.01h1.15l.07.95h.02ZM135,222.42c0,1.12.77,1.59,1.41,1.59,1.02,0,1.57-.94,1.57-2.22,0-1.18-.53-2.17-1.53-2.17-.78,0-1.44.74-1.44,1.64v1.15Z"/>
    <path class="cls-1" d="M145.73,224.92h-1.31v-3.63c0-.9-.3-1.64-1.19-1.64-.64,0-1.33.53-1.33,1.46v3.8h-1.31v-9.04h1.31v3.68h.02c.4-.64,1.11-.98,1.78-.98.94,0,2.02.63,2.02,2.59v3.76Z"/>
    <path class="cls-1" d="M152.3,218.71l-1.5,4.31c-.73,2.04-1.25,3.19-2,3.91-.56.52-1.14.74-1.44.8l-.34-1.1c1.35-.49,1.84-1.75,1.84-1.92,0-.07,0-.15-.07-.27l-2.13-5.73h1.43l1.13,3.5c.12.41.25.88.34,1.24h.03c.09-.36.21-.82.33-1.24l1-3.5h1.38Z"/>
    <path class="cls-1" d="M91.43,233.23c-.37-.21-1.09-.51-2.03-.51-1.36,0-1.92.79-1.92,1.53,0,.96.64,1.44,2.08,2.07,1.83.8,2.72,1.8,2.72,3.37,0,1.91-1.42,3.34-3.98,3.34-1.07,0-2.2-.32-2.76-.69l.39-1.45c.61.37,1.54.67,2.47.67,1.36,0,2.12-.7,2.12-1.73,0-.96-.58-1.56-1.93-2.13-1.7-.69-2.85-1.71-2.85-3.26,0-1.81,1.44-3.16,3.71-3.16,1.09,0,1.91.26,2.4.52l-.42,1.43Z"/>
    <path class="cls-1" d="M94.39,233.15l1.71-.53v2.02h1.96v1.3h-1.96v4.16c0,1.02.31,1.5,1.05,1.5.34,0,.55-.04.76-.11l.06,1.33c-.3.12-.76.19-1.34.19-.69,0-1.27-.23-1.63-.63-.42-.45-.61-1.14-.61-2.21v-4.25h-1.16v-1.3h1.16v-1.49Z"/>
    <path class="cls-1" d="M106.23,240.5c0,.93.04,1.7.08,2.36h-1.52l-.09-1.19h-.04c-.34.57-1.15,1.36-2.47,1.36-1.42,0-2.65-.88-2.65-3.51v-4.89h1.73v4.61c0,1.41.4,2.36,1.53,2.36.79,0,1.71-.63,1.71-1.86v-5.09h1.73v5.86Z"/>
    <path class="cls-1" d="M115.31,240.67c0,.74.03,1.63.06,2.19h-1.52l-.09-1.28h-.04c-.43.83-1.32,1.45-2.49,1.45-1.86,0-3.28-1.66-3.28-4.2,0-2.78,1.59-4.36,3.43-4.36,1.06,0,1.82.48,2.18,1.1h.03v-4.66h1.73v9.76ZM113.58,237.96c0-1.33-.85-2.13-1.82-2.13-1.33,0-2.06,1.32-2.06,2.94s.72,2.84,2.03,2.84c1.12,0,1.85-.98,1.85-2.13v-1.53Z"/>
    <path class="cls-1" d="M118.39,233.38c-.59,0-1-.45-1-1,0-.58.42-1.02,1.02-1.02s1,.43,1,1.02c0,.55-.39,1-1.02,1ZM119.25,242.86h-1.73v-8.23h1.73v8.23Z"/>
    <path class="cls-1" d="M128.56,238.69c0,3.07-2,4.34-3.85,4.34-2.13,0-3.75-1.57-3.75-4.22s1.7-4.34,3.87-4.34,3.73,1.7,3.73,4.22ZM124.77,235.77c-1.48,0-2.04,1.58-2.04,2.99,0,1.61.76,2.97,2.03,2.97s2.03-1.36,2.03-2.99c0-1.36-.57-2.97-2.01-2.97Z"/>
  </g>
  <path class="cls-1" d="M80.33,244.68c-.98,0-1.78-.8-1.78-1.78v-47.18c0-.98.8-1.78,1.78-1.78s1.78.8,1.78,1.78v47.18c0,.98-.8,1.78-1.78,1.78Z"/>
</svg>